<?xml version="1.0" standalone="no"?>
<!DOCTYPE svg PUBLIC "-//W3C//DTD SVG 20010904//EN"
 "http://www.w3.org/TR/2001/REC-SVG-20010904/DTD/svg10.dtd">
<svg version="1.0" xmlns="http://www.w3.org/2000/svg"
 width="500.000000pt" height="500.000000pt" viewBox="0 0 500.000000 500.000000"
 preserveAspectRatio="xMidYMid meet">
<metadata>
Created by potrace 1.14, written by Peter Selinger 2001-2017
</metadata>
<g transform="translate(0.000000,500.000000) scale(0.100000,-0.100000)"
fill="#000000" stroke="none">
<path d="M2067 4824 c-4 -4 -3 -12 1 -18 13 -22 9 -96 -7 -109 -14 -10 -14
-10 -4 4 10 12 10 16 0 16 -9 0 -12 -19 -12 -63 0 -34 3 -60 6 -58 8 4 6 -5
-6 -43 -4 -13 -10 -21 -14 -19 -4 3 -7 -11 -7 -29 0 -18 3 -32 7 -30 12 8 3
-45 -11 -57 -12 -11 -12 -10 -2 3 9 12 9 16 -2 16 -13 0 -16 -32 -5 -52 6 -11
-15 -58 -23 -50 -2 3 -5 -2 -5 -10 0 -8 3 -12 7 -10 4 2 7 -2 7 -10 0 -8 -4
-12 -9 -9 -4 3 -8 -2 -8 -11 0 -9 5 -13 10 -10 16 10 11 -1 -7 -16 -10 -8 -14
-9 -10 -2 4 6 3 14 -2 17 -11 7 -9 -13 3 -33 6 -10 5 -12 -2 -7 -7 4 -12 1
-12 -9 0 -9 -4 -14 -8 -11 -5 3 -9 -1 -9 -9 0 -8 3 -12 7 -10 4 2 7 -2 7 -10
0 -8 -4 -12 -8 -9 -8 5 -22 -14 -25 -34 -1 -6 3 -9 9 -5 7 3 1 -6 -13 -22 -14
-16 -20 -25 -13 -22 16 10 10 -20 -7 -36 -12 -10 -12 -9 -2 4 9 12 9 16 -2 16
-15 0 -16 -14 -2 -36 6 -10 5 -12 -2 -7 -7 4 -12 1 -12 -9 0 -10 -5 -13 -12
-9 -10 6 -10 5 0 -8 10 -13 9 -18 -5 -29 -16 -12 -17 -12 -6 2 10 13 10 16 -1
16 -15 0 -16 -14 -2 -36 6 -10 5 -12 -2 -7 -7 4 -12 1 -12 -9 0 -10 -5 -13
-12 -9 -10 6 -10 5 -1 -7 11 -13 9 -20 -10 -37 -13 -12 -28 -19 -32 -15 -5 5
-3 -1 5 -12 8 -11 10 -17 6 -13 -15 13 -38 -13 -25 -28 8 -10 6 -12 -11 -9
-17 3 -19 1 -11 -9 8 -9 5 -18 -12 -34 -13 -12 -28 -19 -32 -15 -5 5 -3 0 5
-10 11 -15 11 -18 0 -15 -7 2 -19 -7 -25 -19 -7 -13 -16 -20 -21 -16 -5 4 -2
1 6 -8 8 -9 48 -21 87 -27 171 -28 306 -94 419 -207 117 -117 172 -230 189
-388 l7 -67 -229 0 -230 0 -6 54 c-7 70 -36 124 -92 174 -68 60 -127 77 -265
77 -104 -1 -121 -3 -175 -28 -105 -49 -155 -116 -155 -207 0 -138 89 -205 425
-320 360 -123 535 -232 642 -402 97 -153 108 -395 26 -565 -38 -81 -157 -198
-248 -245 -177 -92 -449 -129 -675 -93 -213 35 -379 114 -507 241 -101 101
-154 201 -178 338 -8 49 -15 97 -15 107 0 18 12 19 230 19 l230 0 0 -32 c0
-93 54 -201 125 -250 124 -86 388 -102 520 -30 97 53 137 161 104 279 -28 101
-115 155 -419 263 -384 136 -555 246 -655 425 -33 59 -60 145 -68 215 -4 37
-20 45 -47 25 -8 -7 -27 -11 -42 -10 -15 1 -25 -2 -22 -7 3 -4 9 -6 14 -3 5 3
11 1 14 -4 3 -5 -8 -7 -24 -6 -16 1 -34 -3 -40 -9 -5 -7 -26 -12 -47 -11 -22
1 -46 -5 -58 -14 -17 -14 -18 -14 -8 -1 10 13 7 16 -22 16 -18 0 -31 -4 -29
-8 3 -5 9 -6 14 -3 5 3 11 1 14 -3 9 -14 -40 -8 -58 8 -15 11 -17 11 -14 0 2
-12 -17 -14 -99 -14 l-103 -1 3 -1331 2 -1331 29 -42 c16 -23 50 -54 75 -69
l46 -27 2176 0 2176 0 49 30 c30 19 60 49 79 79 l30 49 3 2136 c1 1473 -1
2152 -8 2187 -13 61 -63 125 -121 154 -37 20 -66 20 -1352 20 -722 0 -1317 -3
-1320 -6z m13 -149 c0 -2 -6 -8 -13 -14 -10 -8 -14 -7 -14 2 0 8 6 14 14 14 7
0 13 -1 13 -2z m1525 -1058 c408 -109 670 -420 724 -862 14 -113 14 -283 1
-400 -48 -414 -297 -731 -665 -845 -138 -42 -237 -50 -627 -50 l-368 0 0 1096
0 1096 418 -4 c413 -5 418 -5 517 -31z m-2871 -575 c3 -5 -1 -9 -9 -9 -8 0
-12 4 -9 9 3 4 7 8 9 8 2 0 6 -4 9 -8z m-450 -81 c-7 -8 -74 -9 -69 -1 2 3 19
6 39 6 19 0 33 -3 30 -5z m46 3 c0 -8 -19 -13 -24 -6 -3 5 1 9 9 9 8 0 15 -2
15 -3z"/>
<path d="M3120 2556 l0 -726 158 0 c104 0 175 5 211 15 186 49 303 175 363
392 20 70 22 102 22 318 0 214 -2 248 -22 317 -57 206 -151 318 -316 376 -62
21 -94 25 -243 30 l-173 5 0 -727z"/>
<path d="M2040 4795 c0 -2 6 -8 13 -14 10 -8 14 -7 14 2 0 8 -6 14 -14 14 -7
0 -13 -1 -13 -2z"/>
<path d="M2040 4755 c0 -2 6 -8 13 -14 10 -8 14 -7 14 2 0 8 -6 14 -14 14 -7
0 -13 -1 -13 -2z"/>
<path d="M1803 3903 c0 -9 4 -10 14 -2 7 6 13 12 13 14 0 1 -6 2 -13 2 -8 0
-14 -6 -14 -14z"/>
<path d="M1723 3783 c0 -9 4 -10 14 -2 7 6 13 12 13 14 0 1 -6 2 -13 2 -8 0
-14 -6 -14 -14z"/>
<path d="M545 3009 c5 -7 52 -6 59 2 3 2 -10 5 -29 5 -18 0 -32 -3 -30 -7z"/>
</g>
</svg>
